REM DIRINDEX 1\2\3,1\2\4,1\2\5,1\2\6
REM DIRNAME folder01,folder02,folder03,folder04,folder05,folder06
TITLE ""
FILE "153 153.mp3" MP3
  TRACK 01 AUDIO
    TITLE "0:"
    INDEX 01 00:00:00
  TRACK 02 AUDIO
    TITLE "3:cjc157_5627"
    INDEX 01 00:00:13
  TRACK 03 AUDIO
    TITLE "0:"
    INDEX 01 00:01:56
  TRACK 04 AUDIO
    TITLE "4:cjc157_5628"
    INDEX 01 00:02:30
  TRACK 05 AUDIO
    TITLE "0:"
    INDEX 01 00:03:55
  TRACK 06 AUDIO
    TITLE "5:cjc157_5629"
    INDEX 01 00:04:27
  TRACK 07 AUDIO
    TITLE "0:"
    INDEX 01 00:07:00
  TRACK 08 AUDIO
    TITLE "3:cjc157_5630"
    INDEX 01 00:07:43
  TRACK 09 AUDIO
    TITLE "0:"
    INDEX 01 00:08:56
  TRACK 10 AUDIO
    TITLE "4:cjc157_5631"
    INDEX 01 00:09:26
  TRACK 11 AUDIO
    TITLE "0:"
    INDEX 01 00:10:43
  TRACK 12 AUDIO
    TITLE "5:cjc157_5632"
    INDEX 01 00:11:13
  TRACK 13 AUDIO
    TITLE "0:"
    INDEX 01 00:13:39
  TRACK 14 AUDIO
    TITLE "3:cjc157_5633"
    INDEX 01 00:14:13
  TRACK 15 AUDIO
    TITLE "0:"
    INDEX 01 00:15:27
  TRACK 16 AUDIO
    TITLE "4:cjc157_5634"
    INDEX 01 00:15:74
  TRACK 17 AUDIO
    TITLE "0:"
    INDEX 01 00:17:02
  TRACK 18 AUDIO
    TITLE "5:cjc157_5635"
    INDEX 01 00:17:49
  TRACK 19 AUDIO
    TITLE "0:"
    INDEX 01 00:21:49
  TRACK 20 AUDIO
    TITLE "3:cjc157_5636"
    INDEX 01 00:22:21
  TRACK 21 AUDIO
    TITLE "0:"
    INDEX 01 00:23:63
  TRACK 22 AUDIO
    TITLE "4:cjc157_5637"
    INDEX 01 00:24:37
  TRACK 23 AUDIO
    TITLE "0:"
    INDEX 01 00:26:07
  TRACK 24 AUDIO
    TITLE "5:cjc157_5638"
    INDEX 01 00:26:54
  TRACK 25 AUDIO
    TITLE "0:"
    INDEX 01 00:29:46
  TRACK 26 AUDIO
    TITLE "3:cjc157_5639"
    INDEX 01 00:30:12
  TRACK 27 AUDIO
    TITLE "0:"
    INDEX 01 00:32:03
  TRACK 28 AUDIO
    TITLE "4:cjc157_5640"
    INDEX 01 00:32:50
  TRACK 29 AUDIO
    TITLE "0:"
    INDEX 01 00:34:22
  TRACK 30 AUDIO
    TITLE "5:cjc157_5641"
    INDEX 01 00:34:69
  TRACK 31 AUDIO
    TITLE "0:"
    INDEX 01 00:37:54
  TRACK 32 AUDIO
    TITLE "3:cjc157_5642"
    INDEX 01 00:38:26
  TRACK 33 AUDIO
    TITLE "0:"
    INDEX 01 00:39:29
  TRACK 34 AUDIO
    TITLE "4:cjc157_5643"
    INDEX 01 00:39:74
  TRACK 35 AUDIO
    TITLE "0:"
    INDEX 01 00:41:20
  TRACK 36 AUDIO
    TITLE "5:cjc157_5644"
    INDEX 01 00:41:65
  TRACK 37 AUDIO
    TITLE "0:"
    INDEX 01 00:45:37
  TRACK 38 AUDIO
    TITLE "3:cjc157_5645"
    INDEX 01 00:46:07
  TRACK 39 AUDIO
    TITLE "0:"
    INDEX 01 00:47:23
  TRACK 40 AUDIO
    TITLE "4:cjc157_5646"
    INDEX 01 00:47:64
  TRACK 41 AUDIO
    TITLE "0:"
    INDEX 01 00:49:53
  TRACK 42 AUDIO
    TITLE "5:cjc157_5647"
    INDEX 01 00:50:19
  TRACK 43 AUDIO
    TITLE "0:"
    INDEX 01 00:54:09
  TRACK 44 AUDIO
    TITLE "3:cjc157_5648"
    INDEX 01 00:54:52
  TRACK 45 AUDIO
    TITLE "0:"
    INDEX 01 00:56:20
  TRACK 46 AUDIO
    TITLE "4:cjc157_5649"
    INDEX 01 00:56:69
  TRACK 47 AUDIO
    TITLE "0:"
    INDEX 01 00:58:32
  TRACK 48 AUDIO
    TITLE "5:cjc157_5650"
    INDEX 01 00:59:02
  TRACK 49 AUDIO
    TITLE "0:"
    INDEX 01 01:02:73
  TRACK 50 AUDIO
    TITLE "3:cjc157_5651"
    INDEX 01 01:03:45
  TRACK 51 AUDIO
    TITLE "0:"
    INDEX 01 01:05:07
  TRACK 52 AUDIO
    TITLE "4:cjc157_5652"
    INDEX 01 01:05:52
  TRACK 53 AUDIO
    TITLE "0:"
    INDEX 01 01:07:23
  TRACK 54 AUDIO
    TITLE "5:cjc157_5653"
    INDEX 01 01:07:74
  TRACK 55 AUDIO
    TITLE "0:"
    INDEX 01 01:11:62
  TRACK 56 AUDIO
    TITLE "3:cjc157_5654"
    INDEX 01 01:12:30
  TRACK 57 AUDIO
    TITLE "0:"
    INDEX 01 01:13:49
  TRACK 58 AUDIO
    TITLE "4:cjc157_5655"
    INDEX 01 01:14:19
  TRACK 59 AUDIO
    TITLE "0:"
    INDEX 01 01:15:42
  TRACK 60 AUDIO
    TITLE "5:cjc157_5656"
    INDEX 01 01:16:12
  TRACK 61 AUDIO
    TITLE "0:"
    INDEX 01 01:18:49
  TRACK 62 AUDIO
    TITLE "5:cjc157_5657"
    INDEX 01 01:19:27
  TRACK 63 AUDIO
    TITLE "0:"
    INDEX 01 01:21:69
